<svg width="24" height="24" viewBox="0 0 24 24" fill="none" xmlns="http://www.w3.org/2000/svg">
<path fill-rule="evenodd" clip-rule="evenodd" d="M1.55527 12.0989C1.55527 7.78608 1.55527 5.62966 2.58298 4.07645C3.0419 3.38287 3.63589 2.78888 4.32948 2.32996C5.88268 1.30225 8.0391 1.30225 12.3519 1.30225C16.6648 1.30225 18.8212 1.30225 20.3744 2.32996C21.068 2.78888 21.662 3.38287 22.1209 4.07645C23.1486 5.62966 23.1486 7.78608 23.1486 12.0989C23.1486 16.4118 23.1486 18.5682 22.1209 20.1214C21.662 20.815 21.068 21.409 20.3744 21.8679C18.8212 22.8956 16.6648 22.8956 12.3519 22.8956C8.0391 22.8956 5.88268 22.8956 4.32948 21.8679C3.63589 21.409 3.0419 20.815 2.58298 20.1214C1.55527 18.5682 1.55527 16.4118 1.55527 12.0989ZM17.9413 12.0991C17.9413 15.1861 15.4387 17.6887 12.3517 17.6887C9.26466 17.6887 6.76212 15.1861 6.76212 12.0991C6.76212 9.01206 9.26466 6.50952 12.3517 6.50952C15.4387 6.50952 17.9413 9.01206 17.9413 12.0991ZM12.3517 15.7976C14.3943 15.7976 16.0502 14.1417 16.0502 12.0991C16.0502 10.0565 14.3943 8.40062 12.3517 8.40062C10.3091 8.40062 8.65323 10.0565 8.65323 12.0991C8.65323 14.1417 10.3091 15.7976 12.3517 15.7976ZM18.1621 7.54207C18.8874 7.54207 19.4754 6.95405 19.4754 6.22868C19.4754 5.50332 18.8874 4.9153 18.1621 4.9153C17.4367 4.9153 16.8487 5.50332 16.8487 6.22868C16.8487 6.95405 17.4367 7.54207 18.1621 7.54207Z" fill="#1678F2"/>
</svg>
