<svg width="25" height="32" viewBox="0 0 25 32" fill="none" xmlns="http://www.w3.org/2000/svg">
<path d="M20.4156 18.0817C20.4156 24.5343 13.8066 28.5096 12.4332 29.2668C12.3571 29.3087 12.2716 29.3308 12.1847 29.3308C12.0978 29.3308 12.0123 29.3087 11.9362 29.2668C10.5618 28.5096 3.95483 24.5343 3.95483 18.0817C3.95483 12.9377 7.04123 9.33691 12.1852 9.33691C17.3292 9.33691 20.4156 12.9377 20.4156 18.0817Z" stroke="#1678F2" stroke-width="1.67948" stroke-linecap="round" stroke-linejoin="round"/>
<path d="M8.06995 17.5678C8.06995 18.6592 8.50351 19.706 9.27526 20.4777C10.047 21.2494 11.0937 21.683 12.1851 21.683C13.2766 21.683 14.3233 21.2494 15.095 20.4777C15.8668 19.706 16.3003 18.6592 16.3003 17.5678C16.3003 16.4764 15.8668 15.4297 15.095 14.6579C14.3233 13.8862 13.2766 13.4526 12.1851 13.4526C11.0937 13.4526 10.047 13.8862 9.27526 14.6579C8.50351 15.4297 8.06995 16.4764 8.06995 17.5678V17.5678Z" stroke="#1678F2" stroke-width="1.67948" stroke-linecap="round" stroke-linejoin="round"/>
</svg>
