<svg width="25" height="25" viewBox="0 0 25 25" fill="none" xmlns="http://www.w3.org/2000/svg">
<g clip-path="url(#clip0_143_92)">
<path d="M14.8861 20.976L14.897 20.9837C15.8412 21.5849 16.9622 21.8459 18.0748 21.7237C19.1874 21.6015 20.2251 21.1034 21.0162 20.3117L21.7036 19.6243C21.8559 19.4721 21.9767 19.2914 22.0591 19.0925C22.1416 18.8935 22.184 18.6803 22.184 18.465C22.184 18.2496 22.1416 18.0364 22.0591 17.8375C21.9767 17.6385 21.8559 17.4578 21.7036 17.3056L18.8046 14.4088C18.6524 14.2565 18.4716 14.1357 18.2727 14.0532C18.0738 13.9708 17.8605 13.9283 17.6452 13.9283C17.4299 13.9283 17.2166 13.9708 17.0177 14.0532C16.8188 14.1357 16.638 14.2565 16.4858 14.4088C16.1785 14.7161 15.7616 14.8887 15.327 14.8887C14.8924 14.8887 14.4755 14.7161 14.1682 14.4088L9.53286 9.77238C9.22558 9.46501 9.05296 9.04818 9.05296 8.61355C9.05296 8.17893 9.22558 7.7621 9.53286 7.45473C9.68517 7.30251 9.806 7.12177 9.88844 6.92284C9.97087 6.72391 10.0133 6.51069 10.0133 6.29535C10.0133 6.08002 9.97087 5.86679 9.88844 5.66786C9.806 5.46893 9.68517 5.28819 9.53286 5.13598L6.63497 2.23918C6.32759 1.9319 5.91076 1.75928 5.47614 1.75928C5.04151 1.75928 4.62468 1.9319 4.31731 2.23918L3.6289 2.9265C2.83732 3.71782 2.3394 4.75552 2.21741 5.86813C2.09542 6.98075 2.35666 8.10168 2.95797 9.04573L2.96452 9.05665C6.14016 13.7551 10.187 17.8013 14.8861 20.976V20.976Z" stroke="#1678F2" stroke-width="1.67948" stroke-linecap="round" stroke-linejoin="round"/>
</g>
<defs>
<clipPath id="clip0_143_92">
<rect width="23.9926" height="23.9926" fill="white" transform="translate(0.188721 0.120117)"/>
</clipPath>
</defs>
</svg>
