<svg width="24" height="19" viewBox="0 0 24 19" fill="none" xmlns="http://www.w3.org/2000/svg">
<path d="M15.7984 0.342756V0.338867H16.8109L17.1809 0.412755C17.4275 0.460723 17.6514 0.523586 17.8526 0.601363C18.0538 0.679139 18.2485 0.769885 18.4367 0.87358C18.625 0.977275 18.7957 1.08293 18.9488 1.19052C19.1007 1.29682 19.237 1.4096 19.3577 1.52885C19.4771 1.6494 19.6634 1.68051 19.9165 1.62218C20.1697 1.56385 20.4422 1.48282 20.7343 1.37913C21.0264 1.27543 21.3152 1.15877 21.6008 1.02913C21.8864 0.899499 22.0603 0.817192 22.1226 0.782193C22.1836 0.74591 22.2161 0.726466 22.22 0.72386L22.2238 0.718027L22.2433 0.708305L22.2628 0.698583L22.2823 0.688861L22.3017 0.679139L22.3056 0.673306L22.3115 0.669417L22.3173 0.665528L22.3212 0.659695L22.3407 0.653862L22.3601 0.649973L22.3563 0.679139L22.3504 0.708305L22.3407 0.737471L22.3309 0.766637L22.3212 0.786081L22.3115 0.805526L22.3017 0.834692C22.2952 0.854136 22.2888 0.880055 22.2823 0.912468C22.2758 0.944881 22.2141 1.0745 22.0973 1.30135C21.9805 1.5282 21.8344 1.75829 21.6592 1.99162C21.4839 2.22494 21.3269 2.40122 21.188 2.52049C21.0478 2.64105 20.955 2.7253 20.9095 2.77327C20.8641 2.82252 20.809 2.86788 20.744 2.90938L20.6467 2.97354L20.6272 2.98326L20.6077 2.99299L20.6039 2.99882L20.598 3.00271L20.5922 3.0066L20.5883 3.01243L20.5688 3.02215L20.5493 3.03187L20.5455 3.03771L20.5396 3.0416L20.5338 3.04549L20.5299 3.05132L20.526 3.05715L20.5201 3.06104L20.5143 3.06493L20.5104 3.07076H20.6077L21.1529 2.9541C21.5164 2.87632 21.8636 2.78235 22.1946 2.67216L22.7204 2.49716L22.7788 2.47772L22.808 2.468L22.8274 2.45827L22.8469 2.44855L22.8664 2.43883L22.8859 2.42911L22.9248 2.42327L22.9637 2.41939V2.45827L22.954 2.46216L22.9443 2.468L22.9404 2.47383L22.9345 2.47772L22.9287 2.48161L22.9248 2.48744L22.9209 2.49327L22.9151 2.49716L22.9092 2.50105L22.9053 2.50688L22.9015 2.51272L22.8956 2.51661L22.8859 2.53605L22.8761 2.55549L22.8703 2.55938C22.8677 2.56327 22.7853 2.67344 22.623 2.88993C22.4607 3.10771 22.3731 3.21788 22.3601 3.22048C22.3472 3.22437 22.329 3.24382 22.3056 3.27881C22.2836 3.3151 22.146 3.45965 21.8928 3.71242C21.6397 3.96519 21.3918 4.19008 21.1491 4.38713C20.905 4.58546 20.7817 4.82915 20.7791 5.11823C20.7752 5.406 20.7603 5.73138 20.7343 6.09432C20.7084 6.45728 20.6597 6.84939 20.5883 7.27069C20.5169 7.69198 20.4066 8.16836 20.2573 8.69983C20.108 9.2313 19.9263 9.74981 19.7121 10.2554C19.4979 10.7609 19.274 11.2146 19.0403 11.6164C18.8067 12.0183 18.5925 12.3586 18.3978 12.6373C18.2031 12.916 18.0051 13.1784 17.8039 13.4247C17.6027 13.671 17.3483 13.9485 17.0407 14.257C16.7317 14.5642 16.563 14.7327 16.5344 14.7625C16.5046 14.791 16.3774 14.8973 16.1528 15.0814C15.9295 15.2667 15.6894 15.4521 15.4324 15.6375C15.1766 15.8216 14.9417 15.9752 14.7275 16.0983C14.5133 16.2214 14.255 16.3621 13.9526 16.5202C13.6514 16.6797 13.3256 16.8275 12.9751 16.9636C12.6246 17.0997 12.2547 17.2261 11.8653 17.3427C11.4758 17.4594 11.0994 17.5501 10.7359 17.6149C10.3725 17.6798 9.96036 17.7349 9.49954 17.7802L8.80832 17.8483V17.858H7.5427V17.8483L7.3772 17.8386C7.26688 17.8321 7.176 17.8256 7.1046 17.8191C7.03322 17.8126 6.76386 17.777 6.29656 17.7122C5.82925 17.6474 5.46256 17.5825 5.19644 17.5177C4.93035 17.4529 4.53443 17.3298 4.00871 17.1483C3.483 16.9668 3.03322 16.7834 2.65937 16.598C2.28683 16.4139 2.05318 16.2973 1.95842 16.248C1.86496 16.2001 1.75981 16.1404 1.64299 16.0691L1.46775 15.9622L1.46387 15.9564L1.45801 15.9525L1.45217 15.9486L1.44828 15.9428L1.4288 15.933L1.40933 15.9233L1.40546 15.9175L1.3996 15.9136L1.39376 15.9097L1.38986 15.9039L1.38599 15.898L1.38013 15.8941H1.37039V15.8553L1.38986 15.8591L1.40933 15.865L1.49695 15.8747C1.55537 15.8812 1.71439 15.8909 1.97399 15.9039C2.23362 15.9168 2.50945 15.9168 2.80151 15.9039C3.09358 15.8909 3.39214 15.8617 3.69718 15.8164C4.00223 15.771 4.36244 15.6932 4.77782 15.583C5.19321 15.4729 5.57484 15.3419 5.92273 15.1903C6.26932 15.0373 6.51594 14.9232 6.66263 14.8481C6.808 14.7742 7.02997 14.6368 7.32852 14.4358L7.77635 14.1345L7.78025 14.1286L7.78609 14.1247L7.79195 14.1208L7.79582 14.115L7.79972 14.1092L7.80556 14.1053L7.81142 14.1014L7.8153 14.0956L7.83477 14.0897L7.85424 14.0858L7.85813 14.0664L7.86397 14.047L7.86983 14.0431L7.87371 14.0372L7.71794 14.0275C7.6141 14.021 7.51349 14.0145 7.41614 14.0081C7.31878 14.0016 7.16627 13.9724 6.95857 13.9206C6.75089 13.8687 6.52698 13.7909 6.28682 13.6872C6.04669 13.5835 5.81303 13.4604 5.58587 13.3178C5.35872 13.1752 5.1945 13.0566 5.09325 12.962C4.9933 12.8686 4.86349 12.7364 4.70383 12.5653C4.54547 12.3929 4.40787 12.216 4.29104 12.0345C4.17422 11.853 4.06259 11.6436 3.95616 11.4064L3.79453 11.0526L3.7848 11.0234L3.77506 10.9942L3.76922 10.9748L3.76533 10.9553L3.79453 10.9592L3.82374 10.9651L4.03792 10.9942C4.18072 11.0137 4.40464 11.0202 4.70967 11.0137C5.01472 11.0072 5.22565 10.9942 5.34248 10.9748C5.4593 10.9553 5.5307 10.9424 5.55666 10.9359L5.5956 10.9262L5.64428 10.9165L5.69296 10.9067L5.69685 10.9009L5.70269 10.897L5.70855 10.8931L5.71243 10.8873L5.67348 10.8776L5.63454 10.8678L5.5956 10.8581L5.55666 10.8484L5.51772 10.8387C5.49176 10.8322 5.44634 10.8192 5.38142 10.7998C5.31652 10.7803 5.14128 10.709 4.8557 10.5859C4.57014 10.4628 4.34297 10.3429 4.17422 10.2262C4.00504 10.1092 3.84374 9.98123 3.69134 9.84314C3.53946 9.70315 3.37267 9.52296 3.19093 9.3026C3.00921 9.08224 2.84696 8.82622 2.70416 8.53455C2.56138 8.24289 2.45428 7.9642 2.38288 7.69846C2.31177 7.43428 2.26485 7.16419 2.24271 6.89153L2.20765 6.4832L2.22712 6.48709L2.24659 6.49292L2.26606 6.50265L2.28553 6.51237L2.305 6.52209L2.32447 6.53181L2.62627 6.66792C2.82749 6.75867 3.07736 6.83644 3.37591 6.90125C3.67447 6.96606 3.85295 7.00172 3.91136 7.00819L3.99898 7.01792H4.17422L4.17034 7.01208L4.16448 7.00819L4.15864 7.0043L4.15475 6.99847L4.15087 6.99264L4.14501 6.98875L4.13917 6.98486L4.13528 6.97903L4.1158 6.96931L4.09633 6.95958L4.09246 6.95375L4.0866 6.94986L4.08076 6.94597L4.07686 6.94014L4.05739 6.93042L4.03792 6.92069L4.03405 6.91486C4.03015 6.91226 3.97433 6.87078 3.86658 6.79042C3.76013 6.70875 3.6485 6.60311 3.53167 6.47348C3.41485 6.34385 3.29802 6.20774 3.1812 6.06515C3.06415 5.92224 2.95991 5.76934 2.86966 5.60822C2.77881 5.44619 2.68274 5.24006 2.58149 4.9899C2.48154 4.74101 2.40561 4.49018 2.35368 4.23741C2.30177 3.98464 2.27256 3.73511 2.26606 3.48881C2.25957 3.24251 2.26606 3.03187 2.28553 2.85688C2.305 2.68188 2.34394 2.48419 2.40236 2.26383C2.46077 2.04347 2.54516 1.81014 2.65548 1.56385L2.82098 1.19441L2.83072 1.16524L2.84045 1.13608L2.84631 1.13219L2.85019 1.12635L2.85408 1.12052L2.85992 1.11663L2.86578 1.12052L2.86966 1.12635L2.87355 1.13219L2.8794 1.13608L2.88526 1.13996L2.88913 1.1458L2.89302 1.15163L2.89887 1.15552L2.9086 1.17496L2.91834 1.19441L2.9242 1.1983L2.92807 1.20413L3.19093 1.49579C3.36617 1.69023 3.57387 1.90736 3.814 2.14717C4.05416 2.38697 4.1872 2.51141 4.21316 2.52049C4.23913 2.53086 4.27157 2.56067 4.31051 2.60994C4.34946 2.65791 4.47927 2.77263 4.69993 2.9541C4.92062 3.13557 5.20943 3.34623 5.56639 3.58603C5.92338 3.82584 6.31928 4.06241 6.75413 4.29574C7.18899 4.52907 7.6563 4.73971 8.15604 4.92767C8.6558 5.11564 9.00628 5.23878 9.20747 5.29711C9.40869 5.35544 9.75266 5.42997 10.2394 5.52072C10.7262 5.61146 11.0929 5.6698 11.3395 5.69572C11.5862 5.72164 11.7549 5.73655 11.8458 5.74044L11.9821 5.74433L11.9782 5.71516L11.9724 5.68599L11.9334 5.44294C11.9075 5.28092 11.8945 5.05406 11.8945 4.7624C11.8945 4.47074 11.9172 4.20177 11.9626 3.95547C12.0081 3.70917 12.0762 3.45965 12.1671 3.20687C12.2579 2.9541 12.3469 2.75122 12.4338 2.59827C12.5221 2.44661 12.6376 2.27356 12.7804 2.07911C12.9232 1.88467 13.1082 1.68376 13.3353 1.47635C13.5625 1.26894 13.8221 1.08422 14.1142 0.92219C14.4062 0.760162 14.6756 0.637004 14.9222 0.552752C15.1689 0.468501 15.3765 0.413396 15.5453 0.387477C15.714 0.361558 15.7984 0.346645 15.7984 0.342756Z" fill="#1678F2"/>
</svg>
