<svg width="25" height="25" viewBox="0 0 25 25" fill="none" xmlns="http://www.w3.org/2000/svg">
<path d="M22.1818 7.87354V17.8705C22.1818 18.5333 21.9185 19.169 21.4498 19.6377C20.9811 20.1064 20.3454 20.3697 19.6826 20.3697H4.68722C4.02438 20.3697 3.38869 20.1064 2.92 19.6377C2.4513 19.169 2.18799 18.5333 2.18799 17.8705V7.87354" stroke="#1678F2" stroke-width="1.67948" stroke-linecap="round" stroke-linejoin="round"/>
<path d="M22.1818 7.87325C22.1818 7.21042 21.9185 6.57473 21.4498 6.10603C20.9811 5.63733 20.3454 5.37402 19.6826 5.37402H4.68722C4.02438 5.37402 3.38869 5.63733 2.92 6.10603C2.4513 6.57473 2.18799 7.21042 2.18799 7.87325L10.8603 13.2883C11.2575 13.5365 11.7165 13.6681 12.1849 13.6681C12.6533 13.6681 13.1123 13.5365 13.5095 13.2883L22.1818 7.87325Z" stroke="#1678F2" stroke-width="1.67948" stroke-linecap="round" stroke-linejoin="round"/>
</svg>
