<svg width="24" height="23" viewBox="0 0 24 23" fill="none" xmlns="http://www.w3.org/2000/svg">
<path d="M1.74002 3.8044C1.74002 3.11196 1.9832 2.54071 2.46953 2.09064C2.95586 1.64056 3.58811 1.41553 4.36624 1.41553C5.13049 1.41553 5.74882 1.63709 6.22127 2.08026C6.7076 2.53726 6.95077 3.13273 6.95077 3.86672C6.95077 4.53145 6.71456 5.08538 6.24211 5.52854C5.75578 5.98555 5.11659 6.21405 4.32455 6.21405H4.30371C3.53946 6.21405 2.92113 5.98555 2.44868 5.52854C1.97623 5.07154 1.74002 4.49682 1.74002 3.8044ZM2.01098 21.9806V8.10437H6.63813V21.9806H2.01098ZM9.20182 21.9806H13.829V14.2324C13.829 13.7476 13.8845 13.3737 13.9957 13.1106C14.1902 12.6398 14.4855 12.2416 14.8815 11.9162C15.2775 11.5907 15.7743 11.428 16.3718 11.428C17.9281 11.428 18.7062 12.4736 18.7062 14.5647V21.9806H23.3334V14.0246C23.3334 11.975 22.847 10.4205 21.8744 9.36113C20.9017 8.30171 19.6164 7.77201 18.0184 7.77201C16.2259 7.77201 14.8294 8.5406 13.829 10.0778V10.1193H13.8081L13.829 10.0778V8.10437H9.20182C9.2296 8.54752 9.2435 9.92544 9.2435 12.2382C9.2435 14.5509 9.2296 17.7983 9.20182 21.9806Z" fill="#1678F2"/>
</svg>
