<svg width="27" height="19" viewBox="0 0 27 19" fill="none" xmlns="http://www.w3.org/2000/svg">
<path d="M14.4475 17.4718L9.57442 17.3807C7.99661 17.349 6.41487 17.4124 4.868 17.0836C2.51484 16.5923 2.34814 14.1836 2.1737 12.1631C1.93334 9.32255 2.02639 6.43046 2.47998 3.61364C2.73605 2.03311 3.74378 1.08999 5.30219 0.987364C10.563 0.614909 15.8588 0.659049 21.1079 0.832812C21.6623 0.848742 22.2205 0.935806 22.7671 1.03491C25.4655 1.51826 25.5313 4.2479 25.7062 6.54574C25.8806 8.86729 25.807 11.2008 25.4736 13.5065C25.2061 15.4156 24.6943 17.0166 22.5345 17.1711C19.8284 17.3732 17.1844 17.5359 14.4708 17.4841C14.4709 17.4718 14.4553 17.4718 14.4475 17.4718ZM11.5826 12.6385C13.6219 11.442 15.6222 10.2654 17.6498 9.07692C15.6068 7.8804 13.6102 6.70381 11.5826 5.51531V12.6385Z" fill="#1678F2"/>
</svg>
